<?xml version="1.0" standalone="no"?>
<!DOCTYPE svg PUBLIC "-//W3C//DTD SVG 20010904//EN"
 "http://www.w3.org/TR/2001/REC-SVG-20010904/DTD/svg10.dtd">
<svg version="1.0" xmlns="http://www.w3.org/2000/svg"
 width="450.000000pt" height="450.000000pt" viewBox="0 0 450.000000 450.000000"
 preserveAspectRatio="xMidYMid meet">
<metadata>
Created by potrace 1.14, written by Peter Selinger 2001-2017
</metadata>
<g transform="translate(0.000000,450.000000) scale(0.100000,-0.100000)"
fill="#000000" stroke="none">
<path d="M2319 4108 c-19 -5 -51 -23 -71 -41 -38 -35 -90 -112 -92 -137 -3
-41 -68 -125 -122 -156 -10 -6 -19 -19 -19 -29 0 -10 -6 -20 -13 -23 -7 -2
-17 -14 -22 -26 -5 -13 -32 -35 -65 -52 -32 -15 -60 -35 -62 -42 -6 -15 12
-56 38 -87 9 -11 19 -29 21 -40 3 -11 9 -27 13 -37 4 -11 0 -18 -15 -23 -15
-5 -20 -13 -17 -26 6 -24 -40 -82 -59 -75 -23 9 -65 -33 -58 -58 3 -12 1 -33
-5 -48 -6 -17 -6 -29 1 -36 6 -6 6 -17 1 -28 -12 -25 -7 -112 8 -130 9 -11 24
-13 54 -9 53 8 67 -7 70 -77 3 -67 -8 -88 -45 -88 -16 0 -31 -4 -34 -8 -3 -5
7 -9 22 -9 51 -1 57 -3 67 -25 6 -14 21 -24 38 -26 22 -3 33 -14 58 -65 42
-83 58 -101 77 -85 12 10 18 8 33 -11 11 -13 19 -32 19 -42 0 -13 17 -30 45
-47 24 -15 45 -31 45 -36 0 -5 11 -24 25 -41 l24 -33 -43 -16 c-24 -9 -50 -14
-60 -10 -9 3 -16 2 -16 -2 0 -26 -48 -65 -84 -69 -22 -3 -64 -22 -99 -45 -32
-22 -63 -40 -66 -40 -4 0 -14 -11 -21 -25 -7 -13 -26 -27 -41 -30 -36 -8 -43
-19 -44 -74 0 -41 -2 -45 -30 -48 -16 -3 -46 -14 -65 -26 -24 -15 -51 -22 -86
-22 -40 0 -58 -6 -90 -30 -58 -44 -112 -102 -116 -126 -5 -31 -23 -27 -23 6
-1 27 -4 30 -37 33 -33 3 -36 1 -40 -26 -6 -43 0 -52 38 -52 19 0 34 -2 34 -5
0 -22 -32 -74 -49 -80 -12 -3 -21 -9 -22 -13 -4 -30 -3 -366 1 -372 3 -4 20
-9 38 -12 23 -3 32 -1 32 10 0 9 10 6 31 -12 32 -27 49 -33 49 -16 0 17 25 11
43 -10 9 -11 26 -20 37 -20 11 0 20 -6 20 -14 0 -25 40 -67 56 -58 21 12 112
-74 118 -112 8 -43 46 -62 63 -32 11 20 83 28 90 10 3 -7 21 -16 41 -20 21 -3
55 -12 77 -20 39 -14 41 -17 37 -50 -3 -20 -20 -68 -39 -107 -19 -40 -37 -81
-39 -92 -18 -90 -17 -92 25 -100 38 -7 95 17 138 58 24 23 43 47 43 53 0 7 7
19 14 27 15 15 31 41 82 137 46 89 130 200 150 200 4 0 14 8 23 18 23 27 118
92 124 86 11 -11 47 17 47 36 0 15 9 21 39 26 34 5 40 10 45 37 4 17 11 48 17
69 l10 38 54 0 c54 0 54 0 64 -38 6 -20 11 -45 11 -54 0 -37 12 -48 51 -48 21
0 39 2 39 4 0 3 -7 33 -14 68 -8 35 -17 76 -20 92 -3 16 -10 52 -16 80 -6 28
-12 60 -14 71 -2 11 -7 32 -11 47 -5 19 -1 35 16 58 23 30 23 32 6 63 -20 38
-18 56 19 121 25 45 44 110 46 161 2 56 20 107 47 132 28 28 38 49 47 100 7
37 23 99 39 148 16 46 24 83 31 140 7 59 11 65 39 65 15 0 24 4 21 9 -3 5 -16
7 -27 4 -14 -4 -25 0 -31 11 -5 9 -13 14 -19 11 -5 -4 -9 -1 -9 4 0 6 -13 11
-30 11 -16 0 -33 6 -37 14 -18 31 -136 66 -149 44 -17 -27 -82 23 -80 62 1 29
12 31 144 31 56 -1 102 3 102 7 0 4 -42 8 -93 10 -145 3 -160 11 -110 58 24
22 30 38 32 87 1 10 13 30 27 44 23 23 28 24 35 11 5 -9 15 -15 22 -14 38 7
57 19 57 37 0 11 10 23 23 28 21 8 56 41 44 41 -10 0 21 79 42 108 23 33 87
204 95 254 6 37 5 37 -60 75 -36 21 -77 44 -92 52 -44 22 -356 213 -374 229
-10 8 -18 11 -18 6 0 -5 -4 -4 -8 3 -4 6 -61 44 -127 84 -66 40 -121 76 -123
81 -2 4 -9 8 -17 8 -7 0 -18 7 -25 15 -14 17 -11 17 -61 3z m498 -2484 c3 -16
6 -42 7 -59 1 -26 -2 -29 -32 -30 -47 -1 -54 7 -47 49 5 26 12 36 22 32 8 -4
17 4 24 21 11 30 18 27 26 -13z"/>
<path d="M126 1882 c-5 -8 -55 -228 -70 -302 -2 -14 -14 -65 -25 -115 -12 -49
-23 -100 -26 -112 -5 -21 -2 -23 35 -23 43 0 43 0 58 90 l7 45 63 3 c61 3 62
2 62 -23 0 -30 -1 -24 15 -77 12 -41 14 -43 46 -40 19 2 35 5 37 7 2 2 -11 70
-28 152 -17 81 -33 155 -34 163 -2 8 -7 33 -11 55 -5 22 -10 47 -12 55 -2 8
-5 26 -7 40 -12 81 -15 85 -61 88 -24 1 -46 -1 -49 -6z m59 -184 c4 -24 9 -52
11 -63 2 -11 6 -38 10 -61 l5 -40 -41 2 c-22 1 -43 4 -45 6 -3 3 2 43 11 89
15 79 21 114 24 149 2 19 16 -27 25 -82z"/>
<path d="M3116 1882 c-2 -4 -2 -43 -2 -87 1 -44 1 -83 -1 -87 -2 -4 -14 -2
-26 6 -32 20 -85 3 -98 -31 -8 -23 -14 -158 -10 -269 2 -71 58 -112 108 -79
13 9 24 11 28 5 3 -6 22 -10 40 -10 l34 0 0 279 -1 279 -34 0 c-19 0 -36 -3
-38 -6z m-10 -239 c6 -24 9 -166 5 -239 -1 -25 -29 -40 -45 -24 -13 13 -17
249 -4 273 13 26 37 21 44 -10z"/>
<path d="M3507 1884 c-4 -4 -7 -22 -7 -41 0 -32 1 -33 41 -33 l40 0 -3 38 c-3
33 -6 37 -33 40 -17 2 -34 0 -38 -4z"/>
<path d="M675 1720 c-53 -8 -61 -14 -75 -56 -19 -58 -6 -98 50 -145 54 -45 72
-82 59 -117 -14 -37 -43 -24 -47 21 -3 35 -5 37 -38 37 -34 0 -34 -1 -34 -44
0 -58 23 -86 75 -91 56 -4 103 17 112 52 6 26 7 38 4 93 -1 11 -27 45 -59 75
-48 46 -58 61 -57 85 2 36 9 44 30 37 9 -4 15 -19 15 -42 0 -33 2 -35 35 -35
32 0 35 2 33 28 -1 15 1 33 6 40 4 7 2 12 -5 12 -7 0 -10 3 -6 6 3 4 1 12 -6
19 -24 23 -52 31 -92 25z"/>
<path d="M892 1716 c-56 -16 -66 -43 -69 -180 -2 -67 2 -135 7 -152 25 -75
162 -79 193 -6 8 19 12 77 11 160 -1 112 -4 133 -20 150 -26 28 -81 41 -122
28z m62 -74 c3 -15 5 -78 4 -139 -1 -103 -2 -113 -20 -119 -11 -3 -24 -2 -29
3 -11 11 -15 229 -5 259 10 31 44 28 50 -4z"/>
<path d="M1154 1720 c-3 -3 -9 -5 -12 -5 -21 -1 -51 -28 -59 -52 -5 -16 -9
-84 -8 -153 1 -129 10 -164 46 -175 31 -10 99 -12 99 -3 0 5 4 7 9 4 17 -11
43 33 46 78 l2 46 -37 0 c-36 0 -37 -2 -35 -30 3 -33 -17 -55 -40 -46 -23 8
-22 258 1 277 14 11 18 11 29 -4 7 -9 11 -28 10 -42 -3 -25 -1 -27 35 -27 35
0 36 1 35 40 -2 51 -13 72 -44 84 -30 12 -69 16 -77 8z"/>
<path d="M3540 1721 c0 -5 -8 -8 -17 -7 -17 1 -18 -15 -20 -191 l-3 -193 40 0
39 0 1 190 c0 179 -1 190 -20 200 -11 6 -20 7 -20 1z"/>
<path d="M3692 1718 c-42 -11 -62 -43 -62 -100 0 -42 4 -51 42 -88 23 -22 45
-40 49 -40 4 0 12 -13 19 -30 16 -39 6 -80 -20 -80 -20 0 -24 12 -20 58 1 19
-3 22 -34 22 -38 0 -40 -3 -37 -60 3 -52 30 -74 92 -74 44 0 55 4 75 27 18 22
22 37 21 82 -2 53 -5 58 -60 112 -48 47 -57 62 -55 87 2 19 9 30 21 32 17 2
19 -2 21 -46 1 -22 6 -25 36 -25 33 0 34 1 35 38 2 70 -48 104 -123 85z"/>
<path d="M4356 1719 c-56 -9 -78 -41 -73 -106 4 -54 3 -54 82 -120 23 -20 29
-34 31 -69 2 -36 -1 -44 -16 -44 -23 0 -36 19 -34 53 1 26 -1 28 -35 25 -36
-3 -36 -3 -34 -48 3 -62 33 -88 98 -85 65 4 91 30 94 95 2 60 -6 77 -69 136
-53 50 -67 95 -34 108 21 8 26 3 30 -31 1 -16 2 -31 3 -35 1 -5 16 -8 34 -8
29 0 32 3 34 33 5 75 -35 110 -111 96z"/>
<path d="M390 1702 c-18 -14 -24 -32 -28 -73 l-4 -54 59 -55 c52 -49 59 -60
61 -98 3 -39 1 -42 -23 -40 -24 2 -28 14 -24 66 0 9 -41 19 -62 15 -22 -6 -15
-92 10 -116 37 -38 139 -26 159 18 15 32 16 100 2 126 -6 10 -33 40 -60 65
-53 50 -67 95 -33 108 20 8 34 -11 31 -44 -3 -22 1 -25 32 -28 l36 -3 1 44 c2
63 -22 87 -86 87 -32 0 -56 -6 -71 -18z"/>
<path d="M3225 1710 c-3 -6 -4 -18 -1 -28 3 -9 7 -28 10 -42 3 -14 10 -50 15
-80 6 -30 13 -66 16 -80 4 -21 11 -51 21 -92 1 -5 2 -19 3 -33 1 -23 5 -25 49
-25 l49 0 12 58 c7 31 21 93 31 137 11 44 21 91 24 105 10 52 15 70 20 78 3 5
-13 9 -34 10 -42 2 -39 6 -54 -70 -3 -13 -8 -45 -12 -73 -3 -27 -10 -57 -15
-66 -4 -9 -6 -19 -2 -22 3 -3 2 -18 -1 -33 -11 -42 -15 -30 -30 86 -9 68 -27
164 -32 172 -7 11 -62 10 -69 -2z"/>
<path d="M3907 1709 c-37 -21 -47 -63 -47 -188 0 -67 5 -131 11 -144 29 -64
145 -70 185 -10 14 22 17 51 16 159 0 172 -13 194 -112 194 -19 -1 -43 -5 -53
-11z m85 -61 c2 -13 4 -74 3 -137 0 -96 -3 -115 -17 -125 -33 -21 -41 6 -41
139 -1 99 3 129 14 136 23 15 36 10 41 -13z"/>
<path d="M4126 1711 c-5 -7 -8 -115 -5 -161 1 -8 0 -19 -1 -25 -1 -5 -2 -52
-1 -102 l1 -93 38 0 39 0 0 146 c0 80 4 149 9 154 5 4 18 10 29 12 27 4 36 78
9 78 -10 0 -26 -7 -36 -17 -17 -15 -18 -15 -18 0 0 12 -9 17 -29 17 -17 0 -32
-4 -35 -9z"/>
<path d="M2912 1261 c-1 -9 -3 -85 -4 -169 -3 -148 -2 -153 17 -150 18 3 20
13 26 113 3 61 6 103 8 95 1 -8 4 -22 6 -30 1 -8 6 -33 10 -55 20 -120 19
-118 48 -126 17 -5 30 -3 34 4 4 6 7 83 8 169 0 155 0 158 -21 158 -28 0 -31
-9 -28 -108 2 -94 -5 -102 -20 -22 -2 8 -7 33 -11 55 -5 22 -8 48 -7 58 0 9
-7 17 -16 18 -9 0 -24 2 -33 4 -9 1 -16 -4 -17 -14z"/>
<path d="M3133 1272 l-43 -3 0 -164 c0 -164 0 -165 23 -164 12 0 29 -1 37 -2
36 -5 58 2 63 21 4 15 0 20 -16 21 -12 1 -26 2 -32 4 -5 1 -15 3 -20 3 -14 2
-13 85 0 94 6 4 22 8 37 8 21 0 26 5 25 20 -1 21 -7 23 -44 20 -23 -1 -25 3
-25 55 0 14 0 30 1 35 1 6 16 10 35 10 19 0 36 6 39 13 2 6 7 -15 11 -48 5
-32 10 -68 13 -80 2 -11 6 -40 9 -65 3 -25 9 -61 14 -81 9 -32 13 -36 35 -31
14 2 25 12 26 21 0 9 2 23 3 31 2 8 7 42 11 75 5 33 9 63 11 68 1 4 2 17 3 29
2 45 11 9 16 -73 9 -133 12 -144 49 -151 11 -2 20 3 21 12 1 8 8 40 14 70 6
30 13 72 17 94 3 21 7 48 10 59 17 89 16 97 -10 97 -20 0 -24 -4 -21 -25 1
-14 -1 -25 -4 -25 -3 0 -6 -12 -7 -27 0 -16 -4 -50 -9 -78 -4 -27 -8 -56 -8
-62 -1 -28 -12 1 -13 35 -1 20 -5 69 -9 109 -7 64 -10 72 -31 76 -12 2 -27 1
-32 -2 -5 -3 -15 -52 -22 -109 -16 -126 -21 -127 -35 -2 -7 56 -11 90 -14 101
-1 9 -74 15 -128 11z"/>
<path d="M3777 1273 l-58 -4 4 -75 c1 -41 0 -77 -3 -79 -4 -2 -4 -26 0 -52 4
-26 4 -59 0 -75 -6 -19 -4 -30 6 -39 16 -13 64 -19 64 -8 0 3 11 4 25 1 21 -4
25 -1 25 20 0 23 -3 25 -34 22 -28 -4 -34 -1 -38 18 -2 13 -1 37 2 53 4 25 10
31 38 33 24 2 32 8 32 23 0 18 -13 23 -52 20 -15 -2 -18 6 -18 48 l0 51 35 0
c31 0 35 3 35 25 0 14 -1 24 -2 23 -2 -1 -29 -3 -61 -5z"/>
<path d="M3867 1269 c-15 -9 -16 -314 -1 -329 5 -5 15 -6 24 0 10 6 14 27 13
75 -1 62 0 66 20 63 19 -3 22 -10 23 -48 1 -25 2 -55 3 -66 1 -23 40 -41 42
-21 8 62 3 134 -10 150 -12 15 -12 19 1 35 18 21 18 103 0 125 -14 16 -95 27
-115 16z m78 -88 c0 -35 -4 -45 -21 -51 -20 -8 -21 -5 -23 45 -1 49 0 52 21
51 20 -1 23 -6 23 -45z"/>
<path d="M4040 1251 c-25 -25 -27 -32 -20 -70 6 -35 35 -80 71 -111 27 -23 27
-78 0 -95 -12 -7 -34 41 -25 56 3 5 -6 9 -19 9 -20 0 -26 -6 -29 -30 -6 -39 1
-49 47 -65 61 -20 95 12 90 87 -2 26 -15 52 -48 92 -25 31 -44 64 -42 73 2 10
4 21 4 26 1 4 10 7 21 7 15 0 20 -7 20 -25 0 -20 5 -25 24 -25 20 0 23 4 20
32 -5 39 -20 55 -58 62 -22 4 -35 -1 -56 -23z"/>
<path d="M4310 1260 c0 -14 20 -85 37 -130 12 -32 15 -47 16 -113 1 -47 6 -70
17 -77 24 -15 30 -2 30 68 0 37 5 84 10 104 6 21 10 39 9 40 -1 2 3 13 10 26
7 13 14 31 16 40 2 9 7 25 11 35 6 16 3 18 -17 15 -19 -2 -27 -14 -39 -55 -20
-66 -26 -71 -35 -31 -4 18 -9 35 -10 38 -1 3 -5 16 -9 30 -8 29 -46 36 -46 10z"/>
<path d="M3648 1128 c-2 -102 -6 -143 -15 -146 -9 -2 -13 7 -13 27 0 26 -4 31
-24 31 -22 0 -23 -4 -20 -37 4 -46 36 -78 64 -63 9 5 20 7 22 4 3 -2 12 6 20
18 11 17 15 57 15 166 l1 142 -24 0 c-23 0 -23 0 -26 -142z"/>
<path d="M4180 1110 c0 -145 2 -160 19 -169 10 -6 21 -8 24 -5 3 3 22 6 41 6
20 0 38 4 41 8 10 16 -25 39 -50 34 -25 -4 -27 -1 -27 46 0 44 2 60 10 59 36
-6 62 3 62 21 0 12 -7 20 -17 21 -62 4 -59 0 -54 84 1 10 12 15 36 15 28 0 35
4 35 20 0 18 -7 20 -60 20 l-60 0 0 -160z"/>
<path d="M61 550 c-4 -3 -7 -43 -7 -90 1 -71 4 -85 18 -88 13 -2 17 5 20 35 3
37 4 38 43 39 22 1 48 2 58 3 21 1 57 36 57 56 0 27 -47 47 -116 49 -36 1 -69
-1 -73 -4z m146 -34 c4 -4 2 -15 -3 -24 -8 -12 -27 -18 -63 -20 -48 -3 -51 -2
-51 21 0 13 3 27 6 30 9 8 102 3 111 -7z"/>
<path d="M287 545 c-3 -9 -1 -129 2 -162 0 -7 8 -13 16 -13 15 0 19 15 15 58
-1 21 2 23 40 19 33 -3 49 -12 74 -41 18 -20 40 -36 49 -36 25 0 21 10 -20 54
-21 21 -33 36 -28 33 14 -7 41 14 49 39 12 38 -23 56 -113 57 -47 1 -82 -2
-84 -8z m154 -31 c17 -21 1 -33 -46 -35 -64 -3 -75 0 -75 19 0 26 3 28 59 29
33 2 53 -3 62 -13z"/>
<path d="M610 553 c-62 -18 -98 -70 -80 -117 28 -75 166 -87 220 -19 27 35 12
101 -29 123 -22 11 -89 19 -111 13z m95 -43 c28 -31 28 -78 0 -96 -34 -22 -63
-25 -100 -10 -52 22 -56 87 -7 115 30 18 87 13 107 -9z"/>
<path d="M819 552 c-14 -2 -16 -16 -14 -85 3 -102 2 -97 23 -97 14 0 17 7 14
38 l-4 37 62 1 c48 1 65 5 80 22 44 47 11 81 -81 85 -35 2 -71 1 -80 -1z m135
-45 c14 -22 4 -29 -54 -35 -52 -5 -70 8 -56 43 8 22 96 15 110 -8z"/>
<path d="M1047 548 c-8 -4 -12 -35 -12 -90 l0 -83 94 0 c65 0 96 4 98 12 3 9
-18 13 -74 15 -73 3 -78 4 -79 26 -1 24 1 25 84 24 38 -1 52 3 52 13 0 10 -18
15 -67 17 -60 3 -68 5 -68 23 0 21 2 21 103 24 26 1 42 6 42 14 0 8 -23 12
-81 12 -44 0 -86 -3 -92 -7z"/>
<path d="M1269 548 c0 -4 0 -37 0 -73 0 -103 0 -105 16 -105 15 0 16 4 19 53
1 17 8 23 34 25 27 3 39 -4 73 -37 36 -37 69 -53 69 -33 0 4 -14 23 -31 41
-16 18 -29 34 -27 36 2 1 13 8 26 14 25 13 28 37 8 64 -11 14 -31 18 -100 20
-47 2 -86 0 -87 -5z m142 -23 c21 -7 25 -30 8 -41 -17 -10 -109 -13 -110 -3
-1 5 -2 15 -3 22 -1 6 -1 14 0 18 4 8 82 11 105 4z"/>
<path d="M1513 552 c-13 -2 -23 -8 -23 -13 0 -10 11 -12 53 -9 30 2 29 3 29
-107 0 -45 3 -53 19 -53 14 0 19 7 20 28 0 15 1 50 2 77 l2 50 35 1 c22 0 36
5 38 15 2 11 -13 14 -75 14 -43 0 -88 -1 -100 -3z"/>
<path d="M1700 552 c0 -3 21 -27 46 -53 41 -41 46 -52 46 -89 -1 -33 2 -41 16
-38 12 2 18 15 20 42 3 31 13 48 48 82 24 24 44 48 44 53 0 19 -40 -2 -73 -39
l-34 -39 -33 37 c-29 33 -80 61 -80 44z"/>
<path d="M2046 552 c-2 -4 -4 -46 -5 -94 -2 -82 -1 -87 19 -85 17 1 20 7 16
29 -2 15 0 30 5 34 5 3 5 14 -2 26 -8 14 -8 23 0 31 8 8 14 2 21 -20 18 -51
47 -98 62 -101 9 -2 27 21 48 63 18 36 34 65 35 65 2 0 2 -28 1 -62 -1 -57 1
-63 19 -63 18 0 20 7 20 80 1 95 -1 104 -23 100 -9 -2 -20 -4 -23 -4 -3 -1
-21 -33 -39 -73 l-32 -72 -35 69 c-20 39 -36 71 -38 73 -6 7 -45 10 -49 4z"/>
<path d="M2387 523 c-26 -41 -77 -139 -77 -148 0 -16 31 -1 45 23 14 23 23 27
66 29 44 1 51 -2 66 -28 17 -28 37 -37 47 -21 3 5 -5 24 -17 43 -11 19 -31 52
-43 74 -12 21 -31 45 -42 53 -19 13 -23 11 -45 -25z m57 -40 l17 -33 -36 0
c-19 0 -35 5 -35 10 0 11 31 62 35 58 1 -2 10 -18 19 -35z"/>
<path d="M2564 466 c1 -74 4 -91 16 -91 12 0 15 13 16 57 0 32 3 60 5 63 3 3
33 -24 68 -60 88 -93 99 -89 95 34 -1 48 -6 76 -15 82 -20 12 -22 6 -21 -61 0
-33 -3 -60 -7 -60 -4 0 -31 26 -61 58 -29 31 -63 60 -75 63 -22 6 -22 5 -21
-85z"/>
<path d="M2898 553 c-14 -4 -108 -158 -108 -177 0 -17 33 -2 48 22 15 24 24
28 66 28 43 1 50 -2 65 -27 14 -25 51 -41 51 -23 0 6 -101 185 -104 183 0 -1
-9 -3 -18 -6z m10 -101 c-40 -4 -43 0 -22 39 l17 33 17 -35 18 -34 -30 -3z"/>
<path d="M3110 548 c-94 -25 -96 -138 -2 -166 49 -15 74 -15 123 0 37 10 39
14 39 50 l0 38 -52 -2 c-56 -3 -79 -24 -26 -23 44 1 50 -3 38 -24 -21 -39
-126 -26 -150 18 -33 64 85 126 138 73 23 -23 57 -15 39 9 -23 30 -89 43 -147
27z"/>
<path d="M3321 545 c-5 -5 -8 -46 -7 -90 l1 -80 93 0 c111 0 126 19 17 23 -66
3 -75 5 -75 22 0 26 25 36 88 34 38 -1 52 2 52 12 0 11 -17 14 -70 14 -67 0
-70 1 -66 23 3 20 8 22 69 22 45 0 68 4 71 12 6 14 3 15 -97 17 -38 0 -72 -3
-76 -9z"/>
<path d="M3553 551 c-5 -3 -9 -44 -9 -91 1 -72 4 -85 19 -88 15 -3 17 6 17 70
l1 73 35 -72 c19 -41 41 -73 49 -73 8 0 30 30 49 68 l35 67 1 -68 c0 -60 2
-68 18 -65 14 3 17 16 18 88 1 47 0 88 -2 91 -2 4 -14 4 -26 2 -17 -3 -31 -22
-53 -73 -16 -37 -33 -66 -37 -64 -4 3 -21 33 -37 68 -28 60 -54 83 -78 67z"/>
<path d="M3839 555 c-1 0 -3 -42 -4 -92 l-1 -93 94 3 c66 1 97 6 100 15 3 9
-16 12 -72 12 -77 0 -92 7 -82 38 5 15 17 17 71 16 50 -2 65 1 65 12 0 13 -63
21 -122 15 -12 -2 -18 5 -18 18 0 24 20 31 88 30 52 -2 72 5 59 17 -5 5 -81 9
-178 9z"/>
<path d="M4080 552 c-12 -6 -16 -26 -16 -94 0 -78 2 -88 17 -88 15 0 19 11 21
67 l3 67 65 -67 c63 -65 88 -80 91 -54 7 54 3 163 -5 169 -19 13 -26 -4 -26
-63 0 -32 -3 -59 -6 -59 -3 0 -34 29 -68 64 -42 44 -66 62 -76 58z"/>
<path d="M4302 541 c2 -10 16 -15 38 -15 38 -1 37 4 39 -118 1 -30 5 -38 20
-38 15 0 18 8 19 48 1 110 1 113 20 111 38 -3 62 2 62 14 0 9 -27 12 -100 12
-82 0 -100 -3 -98 -14z"/>
</g>
</svg>
